<?xml version="1.0" encoding="iso-8859-1"?>
<!-- Generator: Adobe Illustrator 19.0.0, SVG Export Plug-In . SVG Version: 6.00 Build 0)  -->
<svg version="1.1" id="Layer_1" xmlns="http://www.w3.org/2000/svg" xmlns:xlink="http://www.w3.org/1999/xlink" x="0px" y="0px"
	 viewBox="0 0 512 512" style="enable-background:new 0 0 512 512;" xml:space="preserve">
<path style="fill:#2BA5F7;" d="M256.007,253.942c82.114,0,148.683,83.595,148.683,186.714h-45.578
	c-26.726-32.297-179.484-32.297-206.224,0H107.31C107.31,337.538,173.879,253.942,256.007,253.942z"/>
<path style="fill:#2197D8;" d="M256.007,253.942c-34.237,0-62.545,96.201-67.243,186.714c-35.876,0-81.454,0-81.454,0
	C107.31,337.538,173.879,253.942,256.007,253.942z"/>
<path style="fill:#F7B239;" d="M359.112,440.656H152.888c11.319-13.679,24.367-25.135,38.69-33.765
	c19.482-11.799,41.338-18.412,64.429-18.412C296.055,388.48,332.386,408.36,359.112,440.656z"/>
<g>
	<rect x="59.27" y="63.811" style="fill:#B27214;" width="20.58" height="393.995"/>
	<rect x="432.178" y="63.811" style="fill:#B27214;" width="20.58" height="393.995"/>
</g>
<path style="fill:#2BA5F7;" d="M404.69,71.357c0,5.076-0.165,10.112-0.48,15.092c-2.127,33.381-11.25,64.278-25.533,90.401
	l-125.414,44.535l-119.94-44.535c-14.282-26.123-23.406-57.02-25.533-90.401c-0.316-4.98-0.48-10.016-0.48-15.092
	C107.31,71.357,404.69,71.357,404.69,71.357z"/>
<path style="fill:#2197D8;" d="M256.007,258.058c-50.942,0-95.902-32.159-122.684-81.208
	c-16.409-30.019-26.013-66.35-26.013-105.492h80.769c0,39.143,4.39,75.473,11.881,105.492
	C212.199,225.898,232.738,258.058,256.007,258.058z"/>
<path style="fill:#F7B239;" d="M331.947,176.85h46.73c-26.781,49.049-71.741,81.208-122.67,81.208
	c-50.942,0-95.902-32.159-122.684-81.208H331.947z"/>
<path style="fill:#E09B2D;" d="M199.961,176.85c12.238,49.049,32.777,81.208,56.046,81.208c-50.942,0-95.902-32.159-122.684-81.208
	H199.961z"/>
<g>
	<rect x="59.27" y="68.11" style="fill:#995C0D;" width="20.58" height="50.489"/>
	<rect x="432.178" y="68.11" style="fill:#995C0D;" width="20.58" height="30.093"/>
</g>
<path style="fill:#2197D8;" d="M404.69,71.357c0,5.076-0.165,10.112-0.48,15.092H107.791c-0.316-4.98-0.48-10.016-0.48-15.092
	H404.69z"/>
<path style="fill:#E09B2D;" d="M191.578,406.892c-1.29,11.223-2.236,22.542-2.813,33.765h-35.878
	C164.207,426.978,177.255,415.522,191.578,406.892z"/>
<path style="fill:#F95428;" d="M471.958,442.548v64.816c0,2.56-2.076,4.636-4.636,4.636H44.678c-2.56,0-4.636-2.076-4.636-4.636
	v-64.816c0-2.56,2.076-4.636,4.636-4.636h24.876h37.757h45.578h206.224h45.578h37.771h24.862
	C469.883,437.912,471.958,439.988,471.958,442.548z"/>
<path style="fill:#E54728;" d="M107.891,437.899V512h-4.635h-5.934H50.609h-5.931l0,0c-2.56,0-4.636-2.076-4.636-4.636v-64.829
	c0-2.56,2.076-4.636,4.636-4.636H107.891z"/>
<path style="fill:#F95428;" d="M471.958,4.636v64.829c0,2.56-2.076,4.636-4.636,4.636h-24.862H404.69H107.31H69.553H44.678
	c-2.56,0-4.636-2.076-4.636-4.636V4.636c0-2.56,2.076-4.636,4.636-4.636h422.645C469.883,0,471.958,2.076,471.958,4.636z"/>
<path style="fill:#E54728;" d="M107.891,0v74.101h-4.635h-5.934H50.609h-5.931l0,0c-2.56,0-4.636-2.076-4.636-4.636V4.636
	c0-2.56,2.076-4.636,4.636-4.636H107.891z"/>
<g>
</g>
<g>
</g>
<g>
</g>
<g>
</g>
<g>
</g>
<g>
</g>
<g>
</g>
<g>
</g>
<g>
</g>
<g>
</g>
<g>
</g>
<g>
</g>
<g>
</g>
<g>
</g>
<g>
</g>
</svg>
